<svg xmlns="http://www.w3.org/2000/svg" width="150" height="40" viewBox="0 0 150 40"><defs><style>.a,.b{fill:none;}.b{stroke:#fff;}.c{fill:#fff;}</style></defs><path class="a" d="M138.055,0H11.952c-.46,0-.914,0-1.372,0C10.2,0,9.815.01,9.428.015A20.666,20.666,0,0,0,6.916.192,9.9,9.9,0,0,0,4.533.819,8.255,8.255,0,0,0,2.5,2,6.544,6.544,0,0,0,1.027,3.618a5.724,5.724,0,0,0-.783,1.9,10.445,10.445,0,0,0-.225,2C.007,7.83.006,8.138,0,8.444V31.559c.006.31.007.611.019.922a10.444,10.444,0,0,0,.225,2,5.712,5.712,0,0,0,.783,1.9A6.5,6.5,0,0,0,2.5,38,8.045,8.045,0,0,0,4.533,39.18a9.946,9.946,0,0,0,2.383.631,21.043,21.043,0,0,0,2.512.177c.387.007.768.011,1.152.011.458,0,.913,0,1.372,0h126.1c.451,0,.908,0,1.359,0,.382,0,.774,0,1.156-.011a20.767,20.767,0,0,0,2.507-.177,10.1,10.1,0,0,0,2.392-.631A8.046,8.046,0,0,0,147.5,38a6.7,6.7,0,0,0,1.481-1.614,5.719,5.719,0,0,0,.776-1.9,10.861,10.861,0,0,0,.233-2c0-.311,0-.611,0-.922.01-.363.01-.725.01-1.094V9.536c0-.366,0-.729-.01-1.092,0-.307,0-.614,0-.921a10.862,10.862,0,0,0-.233-2,5.731,5.731,0,0,0-.776-1.9,7.5,7.5,0,0,0-3.508-2.8,10.055,10.055,0,0,0-2.392-.627,20.4,20.4,0,0,0-2.507-.177C140.187.01,139.8,0,139.414,0c-.45,0-.908,0-1.359,0Z"/><path class="b" d="M9.52,38.25c-.383,0-.757,0-1.137-.011a19.962,19.962,0,0,1-2.35-.163,8.784,8.784,0,0,1-2.083-.548,6.958,6.958,0,0,1-1.756-1.017,5.58,5.58,0,0,1-1.283-1.4,4.952,4.952,0,0,1-.683-1.657,9.949,9.949,0,0,1-.209-1.875C.01,31.372,0,30.67,0,30.67V7.569s.011-.691.018-.895A9.914,9.914,0,0,1,.227,4.8,4.98,4.98,0,0,1,.91,3.141a5.623,5.623,0,0,1,1.276-1.4A7.16,7.16,0,0,1,3.949.72,8.7,8.7,0,0,1,6.028.176,19.8,19.8,0,0,1,8.386.012L9.52,0H138.727l1.148.013a19.485,19.485,0,0,1,2.336.163,8.873,8.873,0,0,1,2.1.548,6.5,6.5,0,0,1,3.036,2.42,4.98,4.98,0,0,1,.673,1.649,10.42,10.42,0,0,1,.219,1.887c0,.283,0,.587,0,.89.01.375.01.732.01,1.092V29.59c0,.363,0,.718-.01,1.075,0,.325,0,.623,0,.93a10.205,10.205,0,0,1-.215,1.853,4.957,4.957,0,0,1-.679,1.67,5.752,5.752,0,0,1-1.277,1.386,6.96,6.96,0,0,1-1.759,1.022,8.754,8.754,0,0,1-2.1.55,19.731,19.731,0,0,1-2.35.163c-.368.007-.754.011-1.128.011l-1.363,0Z" transform="translate(0.873 0.875)"/><path class="c" d="M24.027,15.62H22.169V3.571h1.8V5.077H24a3.221,3.221,0,0,1,2.78-1.6l.1,0C29.2,3.477,30.7,5.291,30.7,8.1s-1.483,4.621-3.778,4.621c-.053,0-.107,0-.16,0a3.067,3.067,0,0,1-2.688-1.588h-.043v4.484Zm2.367-10.56c-1.421,0-2.375,1.221-2.375,3.038s.954,3.046,2.375,3.046c1.454,0,2.393-1.2,2.393-3.046S27.848,5.061,26.394,5.061ZM14.062,15.62H12.2V3.571H14V5.077h.034a3.221,3.221,0,0,1,2.78-1.6l.1,0c2.316,0,3.812,1.814,3.812,4.622s-1.483,4.621-3.778,4.621c-.053,0-.107,0-.16,0a3.067,3.067,0,0,1-2.688-1.588h-.043v4.484Zm2.367-10.56c-1.421,0-2.375,1.221-2.375,3.038s.954,3.046,2.375,3.046c1.454,0,2.393-1.2,2.393-3.046S17.883,5.061,16.429,5.061Zm23.684,7.771c-2.757,0-4.614-1.44-4.733-3.667h1.9c.136,1.221,1.329,2.04,2.968,2.04,1.561,0,2.694-.807,2.694-1.919,0-.963-.684-1.542-2.289-1.937l-1.61-.388c-2.277-.55-3.338-1.614-3.338-3.347C35.708,1.486,37.566,0,40.226,0c2.62,0,4.422,1.453,4.484,3.614H42.834c-.11-1.226-1.119-1.987-2.633-1.987-1.485,0-2.522.764-2.522,1.858,0,.875.653,1.394,2.255,1.79l1.368.336c2.528.6,3.606,1.627,3.606,3.442C44.908,11.384,43.071,12.832,40.114,12.832Zm30.945-.094c-2.633,0-4.269-1.761-4.269-4.6S68.434,3.46,70.98,3.46c2.517,0,4.081,1.711,4.081,4.466v.637H68.666v.113a2.358,2.358,0,0,0,2.348,2.566l.088,0c.064.006.128.009.192.009a2.038,2.038,0,0,0,1.9-1.283h1.765C74.709,11.6,73.1,12.738,71.058,12.738Zm-.092-7.772a2.278,2.278,0,0,0-1.618.668,2.313,2.313,0,0,0-.674,1.63H73.2a2.177,2.177,0,0,0-2.173-2.3h-.062ZM55.931,12.738c-2.649,0-4.294-1.777-4.294-4.639A4.867,4.867,0,0,1,52.8,4.711a4.54,4.54,0,0,1,6.26,0A4.871,4.871,0,0,1,60.226,8.1C60.226,10.96,58.58,12.738,55.931,12.738Zm0-7.746c-1.5,0-2.4,1.162-2.4,3.108s.9,3.106,2.4,3.106,2.4-1.161,2.4-3.106S57.435,4.991,55.931,4.991Zm-6.238,7.686H49.6c-1.834,0-2.548-.685-2.548-2.444V5.043H45.735V3.571h1.317V1.429h1.867V3.571H50.64V5.043H48.918v4.991c0,.776.35,1.137,1.1,1.137a5.834,5.834,0,0,0,.612-.043v1.463A5.169,5.169,0,0,1,49.693,12.677ZM2,12.626H0L4.484.207H6.566L11.05,12.624H9.011L7.875,9.268H3.142L2.005,12.625ZM5.483,2.272,3.631,7.72H7.384L5.534,2.272ZM63.617,12.625H61.759V3.571h1.772V5.112h.043a2.157,2.157,0,0,1,2.1-1.637l.083,0h.012a2.859,2.859,0,0,1,.624.069V5.284a2.6,2.6,0,0,0-.755-.113h-.08l-.077,0a1.872,1.872,0,0,0-1.859,2.084v5.369Z" transform="translate(48.195 17.871)"/><path class="c" d="M67.337,6.358a1.845,1.845,0,0,1-.2-.011h-.055a2.045,2.045,0,0,1-2.025-2.325,2.076,2.076,0,0,1,2.058-2.352h.019c1.258,0,2.009.849,2.009,2.27v.31h-3.18V4.3a1.19,1.19,0,0,0,1.186,1.29h.013a1.08,1.08,0,0,0,1.072-.546h.855A1.838,1.838,0,0,1,67.337,6.358Zm-.221-3.931a1.151,1.151,0,0,0-1.152,1.166h2.274a1.086,1.086,0,0,0-1.083-1.167h-.039ZM45.682,6.348a2.133,2.133,0,0,1-2.123-2.34,2.133,2.133,0,1,1,4.247,0,2.133,2.133,0,0,1-2.124,2.34Zm0-3.887c-.767,0-1.207.564-1.207,1.547s.44,1.55,1.207,1.55,1.208-.565,1.208-1.55S46.451,2.461,45.684,2.461ZM27.67,6.348a2.134,2.134,0,0,1-2.124-2.34,2.134,2.134,0,1,1,4.248,0,2.134,2.134,0,0,1-2.124,2.34Zm0-3.887c-.768,0-1.208.564-1.208,1.547s.44,1.55,1.208,1.55,1.208-.565,1.208-1.55S28.44,2.461,27.672,2.461ZM8.133,6.348A2.133,2.133,0,0,1,6.01,4.008a2.133,2.133,0,1,1,4.246,0,2.133,2.133,0,0,1-2.123,2.34Zm0-3.887c-.767,0-1.207.564-1.207,1.547s.44,1.55,1.207,1.55,1.208-.565,1.208-1.55S8.9,2.461,8.135,2.461ZM32.091,6.342a1.361,1.361,0,0,1-1.361-1.355c0-.8.595-1.277,1.675-1.344l1.22-.07V3.184c0-.48-.328-.744-.923-.744-.5,0-.84.182-.938.5H30.9c.09-.771.812-1.269,1.84-1.269,1.122,0,1.766.551,1.766,1.513V6.26h-.856V5.628h-.07a1.507,1.507,0,0,1-1.282.709l-.07,0A1.367,1.367,0,0,1,32.091,6.342Zm1.534-2.116-1.1.07c-.615.041-.9.247-.9.649s.328.642.835.642c.035,0,.071.005.107.005a1.063,1.063,0,0,0,1.06-.99V4.226ZM37.6,6.336h-.058c-1.153,0-1.869-.892-1.869-2.327,0-1.412.734-2.325,1.869-2.325l.068,0a1.481,1.481,0,0,1,1.313.792h.067V0h.889V6.26h-.851V5.549H38.96A1.565,1.565,0,0,1,37.6,6.336ZM37.8,2.481c-.742,0-1.2.585-1.2,1.526,0,.957.45,1.529,1.2,1.529s1.212-.585,1.212-1.525S38.546,2.481,37.8,2.481Zm20.538,3.8c-.981,0-1.382-.352-1.382-1.216V2.527H56.24V1.778h.715V.636h.889V1.778h.976v.749h-.976V4.842c0,.469.2.679.637.679a2.854,2.854,0,0,0,.338-.021v.741A3,3,0,0,1,58.336,6.286Zm2.587-.024h-.889V0h.881V2.481h.07a1.389,1.389,0,0,1,1.26-.811c.038,0,.076,0,.113,0l.081,0a1.483,1.483,0,0,1,1.469,1.681V6.259h-.89V3.573c0-.709-.333-1.084-.963-1.084-.028,0-.057,0-.085,0a1.061,1.061,0,0,0-.747.31,1.051,1.051,0,0,0-.3.834V6.26Zm-11.036,0H49v-4.5h.855v.715h.067a1.349,1.349,0,0,1,1.234-.806c.037,0,.074,0,.11,0s.075,0,.112,0a1.465,1.465,0,0,1,1.447,1.678V6.259h-.888V3.568c0-.729-.318-1.083-.972-1.083h-.049a1.032,1.032,0,0,0-1.026,1.141V6.26Zm-30.816,0h-.888v-4.5h.855v.715H19.1a1.349,1.349,0,0,1,1.234-.806c.037,0,.074,0,.11,0s.075,0,.112,0a1.464,1.464,0,0,1,1.447,1.678V6.259h-.888V3.568c0-.729-.318-1.083-.972-1.083H20.1a1.032,1.032,0,0,0-1.026,1.141V6.26Zm-6.018,0H12.14L10.9,1.758h.9l.806,3.436h.067L13.6,1.758h.852l.926,3.436h.07l.8-3.436h.888L15.9,6.26H14.98L14.05,2.944h-.07L13.053,6.26Zm11.259,0h-.889V0h.889V6.259Zm-22.156,0H0V.294H2.155c.063,0,.127-.007.189-.007A2.639,2.639,0,0,1,4.963,3.259C4.963,5.166,3.939,6.26,2.155,6.26ZM.927,1.138V5.417H2.052q.056,0,.111,0a1.876,1.876,0,0,0,1.856-2.15A1.88,1.88,0,0,0,2.157,1.135l-.105,0Z" transform="translate(49.077 8.437)"/><path class="c" d="M5.634,21.776c-1.427,0-2.541-1.592-3.354-2.754a13.874,13.874,0,0,1-2.1-5.248A8.611,8.611,0,0,1,.918,8.045,5.344,5.344,0,0,1,5.391,5.317h.061a5.993,5.993,0,0,1,2.191.566A4.1,4.1,0,0,0,9,6.276a4.207,4.207,0,0,0,1.3-.386,7,7,0,0,1,2.51-.637,3.356,3.356,0,0,1,.349.018,5.091,5.091,0,0,1,3.991,2.158A4.924,4.924,0,0,0,14.8,11.58a4.776,4.776,0,0,0,2.92,4.4A10.945,10.945,0,0,1,16.2,19.072c-.967,1.447-1.884,2.646-3.321,2.669H12.8a3.77,3.77,0,0,1-1.6-.4,4.409,4.409,0,0,0-1.908-.452,4.673,4.673,0,0,0-2.008.467,4.2,4.2,0,0,1-1.571.417ZM8.87,5.021H8.829A4.6,4.6,0,0,1,9.973,1.66,4.945,4.945,0,0,1,13.18,0a4.847,4.847,0,0,1-1.115,3.49A4.079,4.079,0,0,1,8.87,5.021Z" transform="translate(10.972 7.72)"/></svg>