<svg xmlns="http://www.w3.org/2000/svg" width="151" height="41" viewBox="0 0 151 41"><defs><style>.a{fill:none;}.a,.c{stroke:#fff;}.b,.c,.d,.e,.f,.g{fill:#fff;}.c{stroke-miterlimit:10;stroke-width:0.2px;}.d,.e,.f,.g{stroke:#2a8282;}.e{opacity:0.2;}.f{opacity:0.12;}.g{opacity:0.25;}</style></defs><g transform="translate(0.5 0.5)"><rect class="a" width="150" height="40" rx="5"/><path class="b" d="M37.631,17.139a4.174,4.174,0,0,1-3.872-2.529l1.685-.686a2.417,2.417,0,0,0,2.212,1.522A2.219,2.219,0,0,0,40,12.926v-.615h-.062a3.028,3.028,0,0,1-2.266,1.008h-.051a4.339,4.339,0,0,1-4.192-4.288,4.339,4.339,0,0,1,4.192-4.289A3.146,3.146,0,0,1,39.942,5.75h.073V5.044h1.778v7.63a4.542,4.542,0,0,1-1.219,3.419,4.109,4.109,0,0,1-2.918,1.046ZM37.8,6.475h0a2.605,2.605,0,0,0,0,5.2l-.007,0,.01,0a2.5,2.5,0,0,0,1.739-.808,2.375,2.375,0,0,0,.608-1.792,2.391,2.391,0,0,0-.611-1.783A2.521,2.521,0,0,0,37.8,6.476ZM82.544,16.928H80.527l1.965-4.244-3.443-7.64h2.068l2.3,5.463h.062l2.212-5.463h2.152L82.544,16.927ZM50.354,13.36A4.389,4.389,0,0,1,47.3,12.122a4.154,4.154,0,0,1-1.248-3.045,3.984,3.984,0,0,1,1.116-3.015,4.2,4.2,0,0,1,3.013-1.269h.007a4.148,4.148,0,0,1,3.763,2.731l.218.454-5.883,2.369a2.237,2.237,0,0,0,2.045,1.3l.084,0h.005a2.541,2.541,0,0,0,2.157-1.189l1.5,1.008a4.4,4.4,0,0,1-3.639,1.9h-.084Zm.011-6.908c-.038,0-.076,0-.114,0a2.453,2.453,0,0,0-1.687.779,2.329,2.329,0,0,0-.609,1.72l3.929-1.592A1.7,1.7,0,0,0,50.365,6.452ZM28.216,13.36a4.348,4.348,0,0,1-4.394-4.271,4.347,4.347,0,0,1,4.374-4.3h.082a4.362,4.362,0,0,1,3.056,1.23,4.193,4.193,0,0,1,1.276,3.055,4.346,4.346,0,0,1-4.388,4.284ZM28.01,6.482a2.708,2.708,0,0,0-1.954.83A2.537,2.537,0,0,0,25.6,10.2a2.687,2.687,0,0,0,2.407,1.48c.062,0,.125,0,.187-.006a2.586,2.586,0,0,0,1.8-.79,2.45,2.45,0,0,0,.677-1.81,2.588,2.588,0,0,0-1.695-2.416A2.714,2.714,0,0,0,28.01,6.482ZM18.582,13.36h0a4.347,4.347,0,0,1-4.395-4.277,4.345,4.345,0,0,1,4.384-4.291h.072A4.366,4.366,0,0,1,21.7,6.021a4.2,4.2,0,0,1,1.276,3.055A4.346,4.346,0,0,1,18.582,13.36Zm-.21-6.877a2.71,2.71,0,0,0-1.958.833,2.537,2.537,0,0,0-.447,2.9,2.688,2.688,0,0,0,2.4,1.472c.066,0,.132,0,.2-.007h-.01a2.586,2.586,0,0,0,1.8-.79,2.455,2.455,0,0,0,.678-1.81,2.587,2.587,0,0,0-1.7-2.416A2.721,2.721,0,0,0,18.373,6.483ZM7.382,13.325h0c-.093,0-.188,0-.281-.006s-.179.005-.268.005A6.9,6.9,0,0,1,.961,10.068a6.515,6.515,0,0,1,0-6.812A6.9,6.9,0,0,1,6.834,0c.089,0,.179,0,.268.005H7.16a6.627,6.627,0,0,1,4.625,1.884l-1.313,1.28a4.8,4.8,0,0,0-3.3-1.3H7.091A4.907,4.907,0,0,0,2.128,6.707a4.908,4.908,0,0,0,4.963,4.839c.06,0,.121,0,.182,0a4.658,4.658,0,0,0,3.262-1.334,3.768,3.768,0,0,0,1.034-2.288H7.1V6.113l6.277-.051a5.862,5.862,0,0,1,.1,1.139,5.932,5.932,0,0,1-1.614,4.254A6.309,6.309,0,0,1,7.382,13.325Zm66.9-.008a3.024,3.024,0,0,1-1.982-.734,2.9,2.9,0,0,1-1-2.046c0-1.84,1.918-2.833,3.722-2.833h.017a4.375,4.375,0,0,1,2,.484V8.058a1.816,1.816,0,0,0-.686-1.234,1.9,1.9,0,0,0-1.383-.389c-.049,0-.1-.006-.148-.006a1.838,1.838,0,0,0-1.609.934l-1.716-.7a3.612,3.612,0,0,1,3.225-1.931c.072,0,.146,0,.218.006l.051.03c2.344,0,3.92,1.4,3.92,3.488v4.848H77.043V12.1h-.062a2.726,2.726,0,0,1-2.286,1.216c-.065,0-.131,0-.2-.007S74.351,13.317,74.278,13.317Zm1.059-4.081h-.083c-1,0-2.068.352-2.068,1.341,0,.778.926,1.069,1.509,1.069l.052.03a2.323,2.323,0,0,0,2.264-2.016A3.51,3.51,0,0,0,75.337,9.236Zm-5.1,3.872H68.305V.509h1.934v12.6Zm-9.917,0H58.389V.509h4.633c.1-.007.193-.01.289-.01a4.069,4.069,0,0,1,3.434,1.88,3.823,3.823,0,0,1,0,4.082,4.068,4.068,0,0,1-3.433,1.88c-.1,0-.193,0-.289-.01h-2.7v4.777Zm-.01-10.846V6.556h2.7l.041.03a2.193,2.193,0,0,0,2.219-2.162,2.194,2.194,0,0,0-2.219-2.163Zm-15.2,10.846H43.179V.509h1.933v12.6Z" transform="translate(47 16.842)"/><path class="c" d="M3.342,6.327l-.108,0A3.253,3.253,0,0,1,.246,4.359,3.108,3.108,0,0,1,.948.913,3.158,3.158,0,0,1,3.163.006h.084A3.257,3.257,0,0,1,4.5.258a2.584,2.584,0,0,1,.972.676l-.548.534A2.085,2.085,0,0,0,3.346.749l-.113,0H3.22A2.439,2.439,0,0,0,1.5,1.461a2.317,2.317,0,0,0-.677,1.71A2.369,2.369,0,0,0,2.3,5.388,2.488,2.488,0,0,0,4.96,4.915a1.886,1.886,0,0,0,.517-1.23H3.234V2.959H6.242a2.4,2.4,0,0,1,.041.454,2.7,2.7,0,0,1-.775,2.016A3.06,3.06,0,0,1,3.342,6.327Zm27.748,0a3.247,3.247,0,0,1-2.274-.915,3.207,3.207,0,0,1,0-4.485,3.263,3.263,0,0,1,4.549,0,3.193,3.193,0,0,1,0,4.485A3.247,3.247,0,0,1,31.09,6.323Zm0-5.565a2.4,2.4,0,0,0-1.685.678,2.524,2.524,0,0,0,0,3.468,2.433,2.433,0,0,0,3.371,0,2.524,2.524,0,0,0,0-3.468A2.4,2.4,0,0,0,31.09.759ZM36.208,6.2H35.4V.147h.972l3.019,4.707V.147h.8V6.194h-.827L36.208,1.266V6.195Zm-12.646,0h-.8V.893H21.029V.147h4.26V.893H23.562v5.3Zm-3.536,0h-.8V.147h.8V6.194Zm-5.614,0h-.8V.893H11.878V.147H16.19V.893H14.411v5.3Zm-3.392,0H7.4V.147h3.619V.893H8.227V2.809h2.544v.726H8.227V5.449h2.792v.745Z" transform="translate(47.5 6.62)"/><g transform="translate(10.591 6.903)"><path class="d" d="M.479.071A1.983,1.983,0,0,0,0,1.482v22.3a1.983,1.983,0,0,0,.476,1.411l.072.071L13.363,12.781v-.292L.552,0Z" transform="translate(0.007 0.338)"/><path class="d" d="M4.239,8.628,0,4.465V4.173L4.239,0l.093.05L9.41,2.863c1.448.8,1.448,2.107,0,2.913l-5.056,2.8Z" transform="translate(13.37 8.654)"/><path class="d" d="M17.247,4.253,12.884,0,0,12.559a1.719,1.719,0,0,0,2.151.06L17.258,4.253" transform="translate(0.486 12.968)"/><path class="d" d="M17.258,8.714,2.151.349A1.719,1.719,0,0,0,0,.409L12.894,12.968Z" transform="translate(0.476 0)"/><path class="e" d="M17.123,0,2.14,8.315a1.763,1.763,0,0,1-2.068,0L0,8.386l.072.071a1.752,1.752,0,0,0,2.068,0L17.247.091Z" transform="translate(0.486 17.131)"/><path class="f" d="M.479,12.569h0A1.985,1.985,0,0,1,0,11.23a2.018,2.018,0,0,0,.479,1.188l.073.081-.072.07ZM17.7,4.254h0l-.092-.09L22.773,1.31A1.869,1.869,0,0,0,23.807,0a1.772,1.772,0,0,1-1.034,1.451L17.7,4.253Z" transform="translate(0.007 12.968)"/><path class="g" d="M2.626.478,22.78,11.646a1.882,1.882,0,0,1,1.034,1.31A1.766,1.766,0,0,0,22.78,11.5L2.626.337C1.179-.46,0,.206,0,1.818v.151C.031.347,1.189-.319,2.626.478Z" transform="translate(0 0.012)"/></g></g></svg>