<svg xmlns="http://www.w3.org/2000/svg" xmlns:xlink="http://www.w3.org/1999/xlink" width="410" height="267" viewBox="0 0 410 267"><defs><style>.a{fill:#fff;}.b{clip-path:url(#a);}.c{opacity:0.07;}</style><clipPath id="a"><rect class="a" width="410" height="267" transform="translate(1222 4617)"/></clipPath></defs><g class="b" transform="translate(-1222 -4617)"><g class="c" transform="translate(1172.818 4643.917)"><g transform="translate(0 0)"><path class="a" d="M1880.159,499.371c22.832-31.658,59.989-70.462,83.727-89.972,90.143-74.087,107.86-21.355,107.86-21.355a33.378,33.378,0,0,0-5.83-17.533l-.02-.008c-7.144-9.892-23.036-17.646-58.475-3.088-15.175,6.235-32.874,18.317-51.369,34.159l-.008,0-17.12-17.119-140.506,140.5.395.394C1819.047,517.141,1852.619,503.26,1880.159,499.371Z" transform="translate(-1797.079 -359.363)"/><path class="a" d="M1986.826,424.8a353.72,353.72,0,0,0-66.51,45.665c19.111-.611,37.589,1.182,54.532,6.343,0,0,64.637,22.951,10.441,87.59.788-1.576,29.492-59.2-47.99-69.5-12.57-1.674-27.206-1.5-42.948-.039a484.294,484.294,0,0,0-53.329,65.13l83.806,83.826,140.524-140.5Z" transform="translate(-1782.983 -337.71)"/><path class="a" d="M1809.9,495.382l20.805,20.8c-.316.571-.652,1.142-.948,1.714-7.859,14.558-29.038,70.921-32.349,98.738,0,0,4.552-13.79,14.008-35.6v-.02c6.7-15.485,15.879-34.968,27.661-56.482,7.348-13.415,15.7-27.6,25.117-42.08C1842.986,484.625,1820.182,492.374,1809.9,495.382Z" transform="translate(-1797.413 -318.632)"/></g><circle class="a" cx="23.995" cy="23.995" r="23.995" transform="translate(226.675 32.739)"/></g></g></svg>