<svg xmlns="http://www.w3.org/2000/svg" width="23.875" height="23.875" viewBox="0 0 23.875 23.875"><defs><style>.a{fill:#fff;}</style></defs><g transform="translate(-276.123 -1700.88)"><path class="a" d="M276.123,1700.88v23.875H300V1700.88Zm22.476,22.475H277.524V1702.28H298.6Z"/><path class="a" d="M286.221,1706.658h-3.556v3.555h3.556Zm-1,2.555h-1.556v-1.555h1.556Z"/><path class="a" d="M286.221,1711.1h-3.556v3.556h3.556Zm-1,2.556h-1.556V1712.1h1.556Z"/><path class="a" d="M295.843,1720.88v-12.444h-6.955v-3.556H280v16Zm-10.622-1.4h-1.556v-2.933h1.556Zm7.222,0h-1.556v-2.933h1.556Zm2-9.645v9.645h-1v-3.933h-3.556v3.933h-1v-9.645ZM281.4,1719.48v-13.2h6.088v2.156h0v11.044h-1.266v-3.933h-3.556v3.933Z"/><path class="a" d="M293.443,1711.1h-3.556v3.556h3.556Zm-1,2.556h-1.556V1712.1h1.556Z"/></g></svg>