<svg xmlns="http://www.w3.org/2000/svg" width="24" height="24" viewBox="0 0 24 24"><defs><style>.a{fill:#fff;}</style></defs><g transform="translate(-276.181 -1668.644)"><path class="a" d="M291.308,1679.567a4.2,4.2,0,0,0,1.071-2.809,4.244,4.244,0,0,0-8.488,0,4.2,4.2,0,0,0,1.071,2.809,7.044,7.044,0,0,0-3.9,6.316v.778h14.147v-.778A7.044,7.044,0,0,0,291.308,1679.567Zm-6-2.809a2.829,2.829,0,1,1,4.517,2.264,2.814,2.814,0,0,1-3.385,0A2.834,2.834,0,0,1,285.305,1676.758Zm-2.8,8.489a5.684,5.684,0,0,1,3.729-4.7,4.2,4.2,0,0,0,3.8,0,5.69,5.69,0,0,1,3.719,4.7Z" transform="translate(0.051 0.041)"/><path class="a" d="M288.186,1668.644a12,12,0,1,0,11.995,11.995A12,12,0,0,0,288.186,1668.644Zm0,22.585a10.586,10.586,0,1,1,10.58-10.59A10.6,10.6,0,0,1,288.186,1691.229Z"/></g></svg>